HIERARCHY
ROOT Hips
{
	OFFSET 0.00000 0.00000 0.00000
	CHANNELS 6 Xposition Yposition Zposition Zrotation Yrotation Xrotation 
	JOINT LHipJoint
	{
		OFFSET 0 0 0
		CHANNELS 3 Zrotation Yrotation Xrotation
		JOINT LeftHip
		{
			OFFSET 1.84395 -1.68683 0.74144
			CHANNELS 3 Zrotation Yrotation Xrotation
			JOINT LeftKnee
			{
				OFFSET 2.27037 -6.23779 0.00000
				CHANNELS 3 Zrotation Yrotation Xrotation
				JOINT LeftAnkle
				{
					OFFSET 2.56918 -7.05877 0.00000
					CHANNELS 3 Zrotation Yrotation Xrotation
					JOINT LeftToe
					{
						OFFSET 0.22276 -0.61202 1.71784
						CHANNELS 3 Zrotation Yrotation Xrotation
						End Site
						{
							OFFSET 0.00000 -0.00000 0.91613
						}
					}
				}
			}
		}
	}
	JOINT RHipJoint
	{
		OFFSET 0 0 0
		CHANNELS 3 Zrotation Yrotation Xrotation
		JOINT RightHip
		{
			OFFSET -1.76833 -1.68684 0.74144
			CHANNELS 3 Zrotation Yrotation Xrotation
			JOINT RightKnee
			{
				OFFSET -2.49360 -6.85110 0.00000
				CHANNELS 3 Zrotation Yrotation Xrotation
				JOINT RightAnkle
				{
					OFFSET -2.55538 -7.02085 0.00000
					CHANNELS 3 Zrotation Yrotation Xrotation
					JOINT RightToe
					{
						OFFSET -0.21516 -0.59115 1.68050
						CHANNELS 3 Zrotation Yrotation Xrotation
						End Site
						{
							OFFSET -0.00000 -0.00000 0.89604
						}
					}
				}
			}
		}
	}
	JOINT lowerback
	{
		OFFSET 0 0 0
		CHANNELS 3 Zrotation Yrotation Xrotation
		JOINT Chest
		{
			OFFSET 0.06382 1.72312 -0.19613
			CHANNELS 3 Zrotation Yrotation Xrotation
			JOINT Chest2
			{
				OFFSET -0.00055 1.73507 0.23859
				CHANNELS 3 Zrotation Yrotation Xrotation
				JOINT lowerneck
				{
					OFFSET 0 0 0
					CHANNELS 3 Zrotation Yrotation Xrotation
					JOINT Neck
					{
						OFFSET 0.03638 1.65562 0.09633
						CHANNELS 3 Zrotation Yrotation Xrotation
						JOINT Head
						{
							OFFSET 0.06388 1.62807 -0.32386
							CHANNELS 3 Zrotation Yrotation Xrotation
							End Site
							{
								OFFSET 0.00995 1.67644 -0.12021
							}
						}
					}
				}
				JOINT LeftCollar
				{
					OFFSET 0 0 0
					CHANNELS 3 Zrotation Yrotation Xrotation
					JOINT LeftShoulder
					{
						OFFSET 3.09648 1.42991 0.28122
CHANNELS 3 Zrotation Xrotation Yrotation
						JOINT LeftElbow
						{
OFFSET 0 -5.118780 -0.000000
CHANNELS 3 Zrotation Xrotation Yrotation
							JOINT LeftWrist
							{
OFFSET 0 -3.599710 0.000000
CHANNELS 3 Zrotation Xrotation Yrotation
								JOINT lhand
								{
									OFFSET 0 0 0
CHANNELS 3 Zrotation Xrotation Yrotation
									JOINT LFingers
									{
OFFSET 0 -0.628770 0.000000
CHANNELS 3 Zrotation Xrotation Yrotation
										End Site
										{
OFFSET 0 -0.506930 0.000000
										}
									}
								}
								JOINT LThumb
								{
OFFSET 0 0.000000 0.000000
CHANNELS 3 Zrotation Xrotation Yrotation
									End Site
									{
OFFSET 0 -0.514670 0.514670
									}
								}
							}
						}
					}
				}
				JOINT RightCollar
				{
					OFFSET 0 0 0
					CHANNELS 3 Zrotation Yrotation Xrotation
					JOINT RightShoulder
					{
						OFFSET -3.33565 1.14597 0.05047
CHANNELS 3 Zrotation Xrotation Yrotation
						JOINT RightElbow
						{
OFFSET 0 -5.490200 0.000000
CHANNELS 3 Zrotation Xrotation Yrotation
							JOINT RightWrist
							{
OFFSET 0 -3.206590 -0.000000
CHANNELS 3 Zrotation Xrotation Yrotation
								JOINT rhand
								{
									OFFSET 0 0 0
CHANNELS 3 Zrotation Xrotation Yrotation
									JOINT RFingers
									{
OFFSET 0 -0.691880 0.000000
CHANNELS 3 Zrotation Xrotation Yrotation
										End Site
										{
OFFSET 0 -0.557810 0.000000
										}
									}
								}
								JOINT RThumb
								{
OFFSET 0 0.000000 0.000000
CHANNELS 3 Zrotation Xrotation Yrotation
									End Site
									{
OFFSET 0 -0.566330 0.566330
									}
								}
							}
						}
					}
				}
			}
		}
	}
}
MOTION
Frames: 12
Frame Time: 0.008333333333333333
-0.248195 17.572946 7.930173 -7.983873 -1.510219 7.666172 0.000000 0.000000 0.000000 -20.751689 -34.985815 23.044875 0.052483 -1.478635 -4.066842 -5.229913 39.081887 -32.107447 0.054827 1.510402 4.154364 0.000000 0.000000 0.000000 27.711361 22.755360 8.202253 -0.006529 -0.521736 1.433741 0.696169 -18.807713 -19.693516 -0.014503 -0.762055 2.094427 4.361609 1.969543 3.068060 0.941840 3.100061 -7.846201 -1.786207 1.220706 -9.877599 -0.045554 -2.354498 -13.272063 3.723790 -4.710055 32.329881 0.754230 -1.585780 13.139378 0.000000 0.000000 0.000000 2.480896 -7.844090 -51.471281 69.551632 -58.359510 42.388699 25.390772 -3.942318 2.785495 0.000000 0.000000 0.000000 -7.125000 0.000000 0.000000 -0.923781 26.896774 -0.406049 0.000000 0.000000 0.000000 -1.708082 -21.454221 75.283972 -60.900344 -56.424328 -35.116239 -12.253433 -2.557465 60.425639 0.000000 0.000000 0.000000 7.125000 0.000000 0.000000 86.416408 -30.798147 48.510222
-0.247504 17.573563 7.934014 -7.724919 -1.990966 7.742993 0.000000 0.000000 0.000000 -21.202202 -34.909457 23.162856 0.052375 -1.477517 -4.063662 -5.234284 39.268931 -32.739305 0.063788 1.627800 4.478096 0.000000 0.000000 0.000000 27.348772 22.760029 8.121701 -0.006175 -0.507785 1.395452 0.685556 -18.568805 -19.339946 -0.002576 -0.327992 0.901111 4.037973 2.140938 2.906820 0.811086 3.287345 -7.922665 -1.760327 1.331024 -9.861353 0.197053 -2.300993 -13.490507 3.515891 -4.647918 32.604033 0.639129 -1.546839 13.289697 0.000000 0.000000 0.000000 2.580280 -7.783539 -51.341655 69.364934 -58.328279 42.229835 25.416897 -3.746934 2.577874 0.000000 0.000000 0.000000 -7.125000 0.000000 0.000000 -0.902218 27.125659 -0.391628 0.000000 0.000000 0.000000 -1.516983 -20.753687 79.546562 -50.736506 -53.273989 -26.767292 -25.268350 -7.330692 65.950799 0.000000 0.000000 0.000000 7.125000 0.000000 0.000000 118.813144 -77.142226 130.872553
-0.243459 17.573084 7.931297 -7.642958 -2.302778 7.787191 0.000000 0.000000 0.000000 -21.396457 -34.887861 23.239864 0.052362 -1.477011 -4.062393 -5.185758 39.314543 -33.255273 0.085826 1.887968 5.196162 0.000000 0.000000 0.000000 27.187827 22.778843 8.038465 -0.006162 -0.508363 1.396863 0.668830 -18.364947 -19.141060 -0.001484 -0.248892 0.683827 3.896995 2.386596 3.030782 0.676683 3.606226 -8.002671 -1.867463 1.486798 -10.005312 0.175668 -2.421653 -13.714672 3.745853 -4.900123 32.577328 0.691502 -1.625360 13.343130 0.000000 0.000000 0.000000 2.622089 -7.806200 -51.636632 69.082847 -58.280383 41.989806 25.183816 -3.815247 2.407831 0.000000 0.000000 0.000000 -7.125000 0.000000 0.000000 -1.079992 27.318901 -0.463931 0.000000 0.000000 0.000000 -2.018751 -20.523165 81.675999 -46.542073 -51.498822 -23.440442 -27.965464 -9.269124 66.262463 0.000000 0.000000 0.000000 7.125000 0.000000 0.000000 123.692931 -77.134958 135.200055
-0.238935 17.574332 7.925680 -7.742196 -2.406968 7.843551 0.000000 0.000000 0.000000 -21.383711 -35.038585 23.350425 0.053264 -1.489500 -4.096725 -5.243550 39.520357 -33.538545 0.090090 1.935960 5.328746 0.000000 0.000000 0.000000 27.245286 22.824400 7.935260 -0.006491 -0.521917 1.434045 0.662945 -18.279668 -19.043153 -0.000727 -0.171197 0.470526 3.745181 2.507277 3.037257 0.797187 3.764399 -7.912517 -1.670342 1.584992 -9.916055 -0.072496 -2.521945 -13.868783 3.941413 -5.016467 32.082629 0.787965 -1.688515 13.181017 0.000000 0.000000 0.000000 2.422605 -8.006602 -51.737988 68.775978 -58.227569 41.728821 25.047802 -3.779366 2.251930 0.000000 0.000000 0.000000 -7.125000 0.000000 0.000000 -1.183950 27.493812 -0.503795 0.000000 0.000000 0.000000 -2.986797 -20.857497 82.431917 -47.321164 -51.855502 -24.050959 -17.261357 -13.477171 67.277854 0.000000 0.000000 0.000000 7.125000 0.000000 0.000000 112.264684 -75.394850 126.816474
-0.231998 17.577715 7.921129 -7.828538 -2.218158 8.003322 0.000000 0.000000 0.000000 -21.312445 -35.433474 23.325320 0.053018 -1.485777 -4.086488 -5.306297 39.672370 -33.607960 0.091553 1.951328 5.371140 0.000000 0.000000 0.000000 27.235964 22.925971 7.747573 -0.006400 -0.517071 1.420864 0.667626 -18.360732 -19.148003 -0.003405 -0.355847 0.977803 3.721333 2.367968 3.281662 0.909986 3.604286 -8.082909 -1.536450 1.503293 -10.271907 0.204102 -2.408519 -13.792995 3.487342 -4.767004 31.958971 0.601334 -1.610049 13.081793 0.000000 0.000000 0.000000 2.379911 -7.429360 -51.321599 69.000495 -58.266218 41.919809 24.922126 -3.603977 2.345000 0.000000 0.000000 0.000000 -7.125000 0.000000 0.000000 -1.280848 27.393704 -0.547990 0.000000 0.000000 0.000000 -2.803848 -21.020786 80.008664 -53.002949 -54.100652 -28.599654 -15.635870 -12.741739 66.309699 0.000000 0.000000 0.000000 7.125000 0.000000 0.000000 107.544175 -75.593206 122.216506
-0.219509 17.581380 7.915419 -7.847055 -1.850602 8.188276 0.000000 0.000000 0.000000 -21.246848 -35.915780 23.169672 0.051335 -1.461883 -4.020673 -5.286411 39.627346 -33.596140 0.095879 1.996637 5.496339 0.000000 0.000000 0.000000 27.122612 23.047413 7.508584 -0.006715 -0.528472 1.452144 0.672847 -18.533984 -19.435112 -0.011961 -0.700035 1.923884 3.706948 2.092466 3.222535 1.057896 3.244412 -8.171757 -1.328953 1.333399 -10.364385 0.686384 -2.165609 -13.645075 2.836869 -4.332828 32.107547 0.332845 -1.446604 13.070032 0.000000 0.000000 0.000000 2.331343 -6.734065 -50.664054 69.460801 -58.344333 42.311422 24.975312 -3.675535 2.412766 0.000000 0.000000 0.000000 -7.125000 0.000000 0.000000 -1.240055 27.317928 -0.532800 0.000000 0.000000 0.000000 -2.693523 -22.586000 77.882508 -59.974791 -56.276463 -34.326144 -19.447439 -7.359545 64.768134 0.000000 0.000000 0.000000 7.125000 0.000000 0.000000 106.927488 -76.974392 120.104924
-0.199290 17.583761 7.910055 -7.948168 -1.535138 8.368127 0.000000 0.000000 0.000000 -21.268619 -36.448763 23.226488 0.051503 -1.464205 -4.027083 -5.366772 39.815042 -33.665264 0.102994 2.069636 5.698097 0.000000 0.000000 0.000000 27.077982 22.949992 7.251435 -0.006379 -0.516529 1.419240 0.675397 -18.585328 -19.506332 -0.017459 -0.852645 2.343443 4.053588 1.837706 3.132792 1.094612 2.932118 -8.280446 -1.444380 1.152003 -10.436243 0.979210 -1.946766 -13.447059 2.679858 -4.053377 32.439213 0.266259 -1.305020 13.153025 0.000000 0.000000 0.000000 2.478605 -6.137226 -50.107787 69.642716 -58.374696 42.466278 24.914669 -3.947869 2.308363 0.000000 0.000000 0.000000 -7.125000 0.000000 0.000000 -1.286522 27.434170 -0.549233 0.000000 0.000000 0.000000 -2.946451 -25.983287 76.439112 -67.590522 -57.988730 -40.726563 -23.952895 -0.299345 63.204629 0.000000 0.000000 0.000000 7.125000 0.000000 0.000000 108.024470 -78.557780 119.430767
-0.187894 17.586038 7.907900 -8.028172 -1.437395 8.484581 0.000000 0.000000 0.000000 -21.336032 -36.838110 23.431935 0.054800 -1.510599 -4.154880 -5.485619 40.119660 -33.872611 0.106153 2.100613 5.783774 0.000000 0.000000 0.000000 27.100957 23.012500 7.180132 -0.005715 -0.488441 1.342237 0.696437 -18.698004 -19.465064 -0.017209 -0.847124 2.328311 4.288840 1.695764 3.033623 1.076864 2.753715 -8.318179 -1.570457 1.044924 -10.418799 1.137241 -1.806719 -13.421321 2.794094 -3.952414 32.861839 0.300116 -1.217767 13.328653 0.000000 0.000000 0.000000 2.717870 -5.914111 -49.813505 69.420143 -58.337527 42.276827 24.613553 -4.050548 2.322632 0.000000 0.000000 0.000000 -7.125000 0.000000 0.000000 -1.517957 27.424489 -0.648497 0.000000 0.000000 0.000000 -2.586266 -28.902367 73.310403 -76.170192 -59.224504 -48.057442 -14.883978 -4.036506 63.405891 0.000000 0.000000 0.000000 7.125000 0.000000 0.000000 97.412066 -76.385584 111.475305
-0.189830 17.591387 7.906827 -8.032145 -1.474039 8.514112 0.000000 0.000000 0.000000 -21.271951 -36.879770 23.475766 0.059457 -1.573558 -4.328590 -5.530450 40.230752 -33.940760 0.107011 2.108915 5.806744 0.000000 0.000000 0.000000 27.192598 23.415658 7.368488 -0.005183 -0.464875 1.277213 0.749327 -19.053690 -19.517306 -0.018957 -0.889842 2.445719 3.896625 1.566462 2.564193 1.316906 2.526137 -7.970088 -1.050934 0.995352 -9.781670 1.317216 -1.597490 -13.634887 2.629643 -3.648550 32.911932 0.248153 -1.080772 13.384940 0.000000 0.000000 0.000000 2.577999 -6.459357 -49.419567 69.045819 -58.274142 41.958298 24.628282 -3.879479 2.379125 0.000000 0.000000 0.000000 -7.125000 0.000000 0.000000 -1.506620 27.361988 -0.645827 0.000000 0.000000 0.000000 -2.778637 -32.535078 71.437725 -86.790035 -59.954139 -57.220492 -19.223691 0.252816 63.640835 0.000000 0.000000 0.000000 7.125000 0.000000 0.000000 102.623347 -77.402172 115.505706
-0.183238 17.595472 7.903757 -8.012905 -1.421578 8.559272 0.000000 0.000000 0.000000 -21.154875 -36.765621 23.293472 0.061100 -1.595096 -4.387932 -5.418955 39.978585 -33.857501 0.117482 2.209807 6.085888 0.000000 0.000000 0.000000 27.145309 23.462306 7.368929 -0.004745 -0.445607 1.224415 0.758531 -19.129192 -19.556133 -0.022441 -0.965678 2.654456 4.120164 1.692272 3.200309 1.102180 2.748413 -8.348691 -1.455712 1.053522 -10.561798 1.457672 -1.700041 -13.297532 2.830331 -3.902693 33.052417 0.268259 -1.147740 13.379390 0.000000 0.000000 0.000000 2.800052 -5.934377 -50.068183 69.316209 -58.320037 42.188383 24.805829 -3.780857 2.449211 0.000000 0.000000 0.000000 -7.125000 0.000000 0.000000 -1.370338 27.281280 -0.589945 0.000000 0.000000 0.000000 -2.809808 -34.181131 68.817442 -97.110576 -59.763432 -66.151181 -21.993321 3.484625 62.323395 0.000000 0.000000 0.000000 7.125000 0.000000 0.000000 101.450180 -78.551725 113.113933
-0.178260 17.601032 7.900870 -8.013679 -1.282894 8.601584 0.000000 0.000000 0.000000 -20.901238 -36.633975 22.918582 0.059284 -1.570819 -4.320864 -5.310214 39.653994 -33.517093 0.115754 2.193552 6.040853 0.000000 0.000000 0.000000 27.107525 23.471923 7.287893 -0.005059 -0.460931 1.266434 0.755346 -19.179865 -19.705001 -0.027294 -1.067092 2.933517 4.082809 1.757035 3.448281 1.080988 2.850112 -8.448411 -1.480442 1.097687 -10.820258 1.389400 -1.820254 -13.232987 3.040282 -4.127673 33.011455 0.329373 -1.227670 13.358779 0.000000 0.000000 0.000000 2.752634 -5.811568 -50.524823 69.762700 -58.394441 42.568508 24.836400 -3.784942 2.582000 0.000000 0.000000 0.000000 -7.125000 0.000000 0.000000 -1.347181 27.134403 -0.584605 0.000000 0.000000 0.000000 -2.970244 -35.502353 66.923522 -104.987816 -59.122807 -72.940806 -23.033653 6.512778 61.903757 0.000000 0.000000 0.000000 7.125000 0.000000 0.000000 101.342724 -78.967128 112.563047
-0.173359 17.604284 7.899900 -7.977992 -1.099957 8.541369 0.000000 0.000000 0.000000 -20.722567 -36.402619 22.535497 0.055315 -1.517258 -4.173283 -5.291079 39.420273 -32.844680 0.089782 1.929611 5.311227 0.000000 0.000000 0.000000 27.040208 23.284094 7.256975 -0.005272 -0.468127 1.286249 0.748721 -19.175117 -19.779906 -0.027368 -1.068350 2.936836 3.954151 1.796833 3.610304 1.090064 2.902828 -8.436720 -1.411828 1.132658 -10.908019 1.592659 -1.887370 -13.171406 2.892603 -4.222342 32.880916 0.222223 -1.266662 13.281290 0.000000 0.000000 0.000000 2.602726 -5.773948 -50.851199 70.405058 -58.498122 43.115882 25.007857 -3.920249 2.724679 0.000000 0.000000 0.000000 -7.125000 0.000000 0.000000 -1.216460 26.973203 -0.532414 0.000000 0.000000 0.000000 -3.166135 -35.635740 66.491779 -108.753017 -58.626675 -76.165509 -24.436095 10.075653 60.332135 0.000000 0.000000 0.000000 7.125000 0.000000 0.000000 96.686732 -79.916802 106.960545
